HIERARCHY
ROOT Hips
{
	OFFSET 0.000000 0.000000 0.000000
	CHANNELS 6 Xposition Yposition Zposition Zrotation Yrotation Xrotation 
	JOINT LHipJoint
	{
		OFFSET 0.000000 0.000000 0.000000
		CHANNELS 3 Zrotation Yrotation Xrotation
		JOINT LeftUpLeg
		{
			OFFSET 1.363060 -1.794630 0.839290
			CHANNELS 3 Zrotation Yrotation Xrotation
			JOINT LeftLeg
			{
				OFFSET 2.448110 -6.726130 0.000000
				CHANNELS 3 Zrotation Yrotation Xrotation
				JOINT LeftFoot
				{
					OFFSET 2.562200 -7.039590 0.000000
					CHANNELS 3 Zrotation Yrotation Xrotation
					JOINT LeftToeBase
					{
						OFFSET 0.157640 -0.433110 2.322550
						CHANNELS 3 Zrotation Yrotation Xrotation
						End Site
						{
							OFFSET 0.000000 0.000000 0.000000
						}
					}
				}
			}
		}
	}
	JOINT RHipJoint
	{
		OFFSET 0.000000 0.000000 0.000000
		CHANNELS 3 Zrotation Yrotation Xrotation
		JOINT RightUpLeg
		{
			OFFSET -1.305520 -1.794630 0.839290
			CHANNELS 3 Zrotation Yrotation Xrotation
			JOINT RightLeg
			{
				OFFSET -2.542530 -6.985550 0.000000
				CHANNELS 3 Zrotation Yrotation Xrotation
				JOINT RightFoot
				{
					OFFSET -2.568260 -7.056230 0.000000
					CHANNELS 3 Zrotation Yrotation Xrotation
					JOINT RightToeBase
					{
						OFFSET -0.164730 -0.452590 2.363150
						CHANNELS 3 Zrotation Yrotation Xrotation
						End Site
						{
							OFFSET 0.000000 0.000000 0.000000
						}
					}
				}
			}
		}
	}
}
MOTION
Frames: 33
Frame Time: 0.008333
7.426190 15.718536 2.395326 8.014838 55.190436 26.921352 -11.329255 2.202706 1.198184 -1.833859 -0.143606 -31.938877 1.191533 3.574318 74.739302 2.442777 15.306409 -13.367581 -1.525700 -0.000000 -14.698300 8.531910 -1.844383 3.566737 21.532617 11.082068 -27.148665 2.938733 -1.914285 43.741282 -3.262924 0.056272 -40.702073 -177.734101 -0.000000 -25.947100
7.592700 15.793818 2.513418 8.491105 54.848287 27.709964 -11.138502 1.960769 1.634264 -2.021626 -2.227379 -33.469370 1.148175 3.453424 74.167111 2.412751 14.873703 -13.816392 -1.589500 -0.000000 -14.083800 8.653301 -1.832525 3.545088 20.785252 10.876182 -25.842081 2.994465 -1.688580 41.694640 -3.110439 0.456573 -39.936144 -177.979200 0.000000 -25.136500
7.763949 15.883074 2.637215 8.955326 54.529498 28.477021 -10.937360 1.728755 2.093411 -2.116847 -4.273371 -34.915438 1.087241 3.318207 73.294520 2.392769 14.497119 -14.163641 -1.628600 -0.000000 -13.535301 8.776301 -1.837653 3.527002 20.031419 10.572804 -24.439189 3.040727 -1.441559 39.386099 -2.906138 0.903004 -38.781463 -178.264700 -0.000000 -24.330200
7.939952 15.985588 2.766567 9.384639 54.219957 29.200805 -10.728277 1.509592 2.567417 -2.116698 -6.251796 -36.265607 1.011268 3.169983 72.122783 2.383651 14.181891 -14.409757 -1.645700 -0.000000 -13.068000 8.900813 -1.863685 3.514865 19.283585 10.179350 -22.943072 3.074908 -1.177404 36.819970 -2.642801 1.410876 -37.184807 -178.591900 -0.000000 -23.526000
8.120329 16.100358 2.901427 9.770977 53.905101 29.869423 -10.512254 1.306849 3.047576 -2.031917 -8.139962 -37.502135 0.923296 3.008656 70.648140 2.385500 13.931343 -14.538732 -1.639101 0.000000 -12.737500 9.030233 -1.913459 3.509340 18.543385 9.701336 -21.359518 3.093396 -0.902499 34.008295 -2.316567 1.988833 -35.099106 -178.953200 -0.000000 -22.659600
8.304667 16.225927 3.041630 10.096690 53.574226 30.465958 -10.291858 1.122808 3.524232 -1.867108 -9.911973 -38.613286 0.826704 2.834499 68.871682 2.396437 13.737361 -14.536074 -1.605400 0.000000 -12.524400 9.165766 -1.989901 3.512913 17.819898 9.159498 -19.699429 3.091911 -0.625736 30.972255 -1.932561 2.620672 -32.490149 -179.324100 0.000000 -21.613300
8.492084 16.360716 3.187150 10.372494 53.216713 30.992012 -10.066890 0.961321 3.988969 -1.649748 -11.556052 -39.576845 0.725102 2.646357 66.786315 2.414496 13.596075 -14.365027 -1.535400 -0.000000 -12.484099 9.314698 -2.094525 3.522471 17.102990 8.556485 -17.980133 3.065416 -0.360047 27.755416 -1.500866 3.286404 -29.335583 -179.674200 -0.000000 -20.170501
8.681805 16.502614 3.337732 10.601505 52.826068 31.446310 -9.838579 0.825182 4.434534 -1.402415 -13.060008 -40.379071 0.622104 2.444061 64.392194 2.435916 13.494127 -13.993229 -1.419800 0.000000 -12.628200 9.481485 -2.229016 3.535226 16.391232 7.901641 -16.231195 3.010075 -0.121363 24.423857 -1.041706 3.947770 -25.635099 -179.962900 0.000000 -18.043201
8.872806 16.649495 3.493072 10.803015 52.397871 31.836594 -9.606985 0.718028 4.855649 -1.159170 -14.422346 -41.001158 0.520363 2.227748 61.687128 2.456405 13.418141 -13.386094 -1.248100 0.000000 -12.973900 9.672204 -2.393665 3.542559 15.674562 7.185833 -14.489208 2.923866 0.072260 21.070280 -0.580402 4.569295 -21.408844 179.847400 -0.000000 -14.840700
9.064201 16.799021 3.652712 10.998229 51.931337 32.171798 -9.372270 0.643313 5.249658 -0.954590 -15.647793 -41.426574 0.421031 1.998570 58.672749 2.470860 13.351143 -12.520189 -1.012500 -0.000001 -13.514100 9.891172 -2.587842 3.532320 14.945305 6.385251 -12.800445 2.807693 0.203486 17.809924 -0.145870 5.120890 -16.699671 179.787899 0.000000 -10.051200
9.255160 16.948805 3.815885 11.206395 51.431657 32.457993 -9.135308 0.603746 5.615974 -0.818428 -16.745836 -41.641554 0.323286 1.758956 55.355914 2.473402 13.272716 -11.386652 -0.709500 -0.000000 -14.228700 10.139184 -2.808878 3.490105 14.201043 5.465388 -11.212707 2.665029 0.260123 14.764933 0.232026 5.579009 -11.577174 179.878400 -0.000000 -3.146001
9.445468 17.096752 3.981043 11.426774 50.916597 32.683807 -8.900909 0.598436 5.955641 -0.759509 -17.726916 -41.635980 0.225076 1.512049 51.752607 2.457236 13.158393 -9.994330 -0.342200 0.000000 -15.095300 10.407973 -3.052222 3.403539 13.460052 4.396635 -9.761439 2.503128 0.240910 12.038547 0.524188 5.918172 -6.164947 0.121200 -0.000001 -5.991500
9.634390 17.240238 4.148378 11.681695 50.395337 32.865570 -8.668510 0.629989 6.270931 -0.798813 -18.603642 -41.411897 0.119670 1.262453 47.879826 2.415247 12.980897 -8.364822 0.080200 -0.000000 -16.101800 10.694290 -3.303467 3.262472 12.719502 3.148180 -8.484048 2.326671 0.156765 9.726046 0.709760 6.120223 -0.661722 0.489700 0.000000 -17.105700
9.822019 17.377405 4.315858 11.949198 49.905738 32.974002 -8.446933 0.691535 6.562273 -0.915554 -19.381670 -40.970561 0.001554 1.014273 43.778628 2.339338 12.708212 -6.537597 0.538100 -0.000001 -17.251300 10.978637 -3.544866 3.057756 12.018731 1.702697 -7.386641 2.153443 0.033576 7.929523 0.782738 6.185203 4.476718 0.911900 -0.000000 -27.532300
10.009044 17.506453 4.482328 12.214707 49.474140 33.002531 -8.243895 0.777119 6.833989 -1.088325 -20.068666 -40.337623 -0.136560 0.772056 39.497779 2.223550 12.314047 -4.558064 1.005900 -0.000000 -18.567800 11.246345 -3.765162 2.792078 11.374481 0.073493 -6.470577 1.988364 -0.108757 6.712969 0.757401 6.066665 8.968520 1.295799 -0.000000 -36.212300
10.195278 17.625886 4.646369 12.466982 49.121481 32.941217 -8.064947 0.878787 7.082879 -1.301726 -20.669210 -39.533321 -0.302527 0.540493 35.099384 2.064087 11.778048 -2.472462 1.453300 0.000000 -20.093599 11.486467 -3.957336 2.469004 10.792729 -1.698838 -5.702336 1.828885 -0.258305 6.085926 0.653027 5.674153 12.683110 1.540200 0.000000 -43.034900
10.381350 17.734357 4.807210 12.691182 48.863131 32.793990 -7.915658 0.987025 7.309727 -1.534377 -21.181970 -38.607798 -0.501282 0.322546 30.660843 1.860644 11.083161 -0.327000 1.848000 0.000000 -21.880200 11.687802 -4.119144 2.103985 10.279395 -3.540650 -5.050329 1.672083 -0.406223 6.014251 0.487674 4.909926 15.569373 1.550400 0.000000 -48.055801
10.567726 17.830840 4.964344 12.881953 48.706699 32.572357 -7.799016 1.092031 7.513324 -1.779397 -21.601209 -37.614816 -0.734409 0.119916 26.270150 1.616907 10.219372 1.837772 2.158900 0.000000 -23.977000 11.844062 -4.250293 1.712490 9.831932 -5.380274 -4.479872 1.514267 -0.548471 6.439451 0.275097 3.714420 17.659878 1.269500 -0.000000 -51.713700
10.754835 17.914497 5.117528 13.032092 48.655494 32.288076 -7.717965 1.184204 7.689719 -2.041736 -21.900426 -36.618084 -0.999111 -0.066247 22.029054 1.338470 9.169808 3.983835 2.355900 0.000000 -26.407800 11.950385 -4.351383 1.312695 9.452468 -7.142674 -3.965647 1.354993 -0.682751 7.308933 0.026640 2.095435 18.979101 0.693901 0.000000 -54.000401
10.942827 17.984909 5.266800 13.142094 48.706496 31.954136 -7.674127 1.256662 7.830431 -2.352907 -22.033224 -35.675395 -1.289976 -0.234354 18.044448 1.032065 7.911243 6.078747 2.410000 0.000000 -29.159400 12.007062 -4.424420 0.920820 9.139177 -8.770480 -3.491100 1.194204 -0.809753 8.572292 -0.249092 0.129936 19.599547 -0.118000 -0.000000 -55.081100
11.131674 18.041931 5.412452 13.218482 48.851356 31.582361 -7.667974 1.306440 7.922963 -2.769936 -21.934529 -34.833581 -1.600907 -0.381867 14.421495 0.704311 6.412142 8.095818 2.293199 0.000000 -32.179599 12.019186 -4.472816 0.550385 8.884863 -10.227660 -3.049781 1.032878 -0.932294 10.188335 -0.543708 -2.049280 19.622536 -1.063500 -0.000000 -55.162400
11.321081 18.085765 5.554832 13.273701 49.076922 31.182283 -7.698471 1.334663 7.951702 -3.367436 -21.530123 -34.124906 -1.926751 -0.505139 11.258455 0.361688 4.637450 10.011476 1.979400 0.000000 -35.367800 11.995815 -4.501418 0.211241 8.676675 -11.499243 -2.641936 0.872528 -1.054711 12.120599 -0.847592 -4.286503 19.178243 -2.026100 0.000000 -54.512299
11.510580 18.116864 5.694659 13.338484 49.361482 30.775541 -7.756994 1.346974 7.910928 -4.207163 -20.802870 -33.551053 -2.261499 -0.603145 8.594257 0.017891 2.618481 11.832541 1.469800 0.000000 -38.679200 11.954057 -4.513726 -0.095043 8.475503 -12.607371 -2.287746 0.715210 -1.183576 14.360572 -1.146205 -6.407048 18.392785 -2.890400 0.000000 -53.399000
11.699750 18.135691 5.832264 13.423553 49.686894 30.364586 -7.839361 1.350554 7.789334 -5.333604 -19.717795 -33.122339 -2.599312 -0.671386 6.495906 -0.317134 0.362323 13.526262 0.760500 0.000000 -41.894699 11.904129 -4.516662 -0.365138 8.264181 -13.561840 -1.990405 0.562695 -1.323133 16.868532 -1.426624 -8.299277 17.416767 -3.592400 0.000000 -52.146500
11.886359 18.141896 5.967808 13.578646 50.031954 29.973439 -7.924921 1.353110 7.589600 -6.741598 -18.372918 -32.788437 -2.930234 -0.710498 4.928499 -0.621074 -1.976718 15.105197 -0.090100 -0.000000 -44.969800 11.870572 -4.507071 -0.621380 7.972303 -14.432749 -1.761059 0.416575 -1.481371 19.658844 -1.670448 -9.835466 16.332935 -4.074400 0.000000 -50.979200
12.073607 18.137418 6.102157 13.766104 50.372354 29.610041 -8.015958 1.365959 7.347919 -8.317855 -16.863534 -32.570202 -3.235571 -0.723713 3.831490 -0.876835 -4.228734 16.566500 -1.007099 0.000000 -47.703000 11.846153 -4.500034 -0.835174 7.637891 -15.166878 -1.639742 0.277991 -1.654930 22.659676 -1.871415 -11.017322 15.280331 -4.363400 0.000000 -50.055100
12.259591 18.121617 6.235006 13.995961 50.695949 29.273852 -8.100598 1.393507 7.071728 -9.992196 -15.298069 -32.421857 -3.503950 -0.710487 3.164161 -1.074965 -6.229236 17.882860 -1.904300 0.000000 -49.988599 11.841504 -4.493062 -1.025620 7.236592 -15.799065 -1.618588 0.146453 -1.846532 25.857048 -2.022566 -11.825921 14.295954 -4.472200 0.000000 -49.485300
12.444208 18.094523 6.366255 14.242283 50.992217 28.951656 -8.178662 1.438822 6.773619 -11.678676 -13.740636 -32.334256 -3.725534 -0.669962 2.909009 -1.216265 -7.872392 18.993502 -2.704000 0.000000 -51.639901 11.853644 -4.489685 -1.192613 6.790528 -16.318400 -1.697377 0.020439 -2.054237 29.209448 -2.125826 -12.302070 13.410731 -4.441000 -0.000000 -49.300600
12.627449 18.056064 6.496015 14.482084 51.249850 28.634235 -8.248193 1.500501 6.474363 -13.276644 -12.291693 -32.274348 -3.891510 -0.606314 2.998508 -1.302142 -9.031470 19.856546 -3.313400 -0.000000 -52.602000 11.880159 -4.489855 -1.339809 6.317680 -16.716615 -1.870336 -0.102962 -2.275439 32.675745 -2.187641 -12.503973 12.627269 -4.309901 0.000000 -49.460900
12.809339 18.006190 6.624461 14.689821 51.458094 28.307056 -8.309888 1.574070 6.187013 -14.715684 -11.005246 -32.220884 -3.999039 -0.523784 3.397066 -1.340065 -9.664142 20.399704 -3.671700 0.000000 -52.786000 11.916822 -4.493378 -1.468210 5.840283 -16.981183 -2.126612 -0.227402 -2.506695 36.213237 -2.218456 -12.509270 11.927104 -4.118101 -0.000000 -49.877000
12.989990 17.944734 6.751597 14.850420 51.621444 27.967434 -8.364234 1.653040 5.927429 -15.940718 -9.941235 -32.169444 -4.047413 -0.426358 4.085728 -1.337746 -9.778243 20.554370 -3.750400 -0.000001 -52.230200 11.959117 -4.498840 -1.582836 5.378288 -17.128435 -2.466293 -0.355930 -2.744619 39.791586 -2.228860 -12.394009 11.281976 -3.896700 0.000000 -50.454100
13.169529 17.871717 6.877972 14.959864 51.725538 27.615952 -8.406879 1.729788 5.707222 -16.925674 -9.147046 -32.093569 -4.042166 -0.322850 5.021655 -1.301340 -9.405829 20.250261 -3.546700 -0.000001 -50.922600 12.007871 -4.502787 -1.685291 4.929528 -17.155978 -2.877303 -0.492429 -2.985934 43.377926 -2.230041 -12.236187 10.651704 -3.670401 0.000000 -51.055600
13.348092 17.787174 7.003890 15.029432 51.769710 27.267712 -8.434332 1.797105 5.538263 -17.669549 -8.663956 -31.994202 -3.990607 -0.218774 6.196367 -1.235798 -8.627593 19.428201 -3.101700 0.000000 -48.963800 12.062103 -4.501992 -1.778872 4.486711 -17.087860 -3.361409 -0.639927 -3.227647 46.953681 -2.230500 -12.097775 10.001379 -3.455401 0.000000 -51.578700
